<?xml version="1.0" encoding="utf-8"?>
<!-- Generator: Adobe Illustrator 19.1.1, SVG Export Plug-In . SVG Version: 6.00 Build 0)  -->
<svg version="1.1" id="Calque_1" xmlns="http://www.w3.org/2000/svg" xmlns:xlink="http://www.w3.org/1999/xlink" x="0px" y="0px"
	 viewBox="0 0 1920 1080" style="enable-background:new 0 0 1920 1080;" xml:space="preserve">
<style type="text/css">
	.st0{fill:url(#SVGID_1_);}
	.st1{fill:url(#SVGID_2_);}
	.st2{fill:url(#SVGID_3_);}
	.st3{fill:url(#SVGID_4_);}
	.st4{fill:url(#SVGID_5_);}
	.st5{fill:url(#SVGID_6_);}
	.st6{fill:#1A1A1A;}
	.st7{fill:url(#SVGID_7_);}
	.st8{fill:url(#SVGID_8_);}
	.st9{fill:url(#SVGID_9_);}
	.st10{fill:url(#SVGID_10_);}
	.st11{fill:url(#SVGID_11_);}
	.st12{fill:url(#SVGID_12_);}
	.st13{fill:url(#SVGID_13_);}
	.st14{fill:url(#SVGID_14_);}
	.st15{fill:url(#SVGID_15_);}
	.st16{fill:url(#SVGID_16_);}
</style>
<linearGradient id="SVGID_1_" gradientUnits="userSpaceOnUse" x1="654.479" y1="2063.4531" x2="1214.5313" y2="2063.4531" gradientTransform="matrix(0.2731 0.962 -0.962 0.2731 2549.9026 367.1552)">
	<stop  offset="0" style="stop-color:#000000"/>
	<stop  offset="1" style="stop-color:#1A1A1A"/>
</linearGradient>
<polygon class="st0" points="945.1,1761.8 763.2,2137 715.9,1568.2 "/>
<linearGradient id="SVGID_2_" gradientUnits="userSpaceOnUse" x1="1047.5311" y1="1262.1194" x2="1680.7434" y2="1262.1194" gradientTransform="matrix(-0.8519 0.5237 -0.5237 -0.8519 2402.6736 2311.7639)">
	<stop  offset="0" style="stop-color:#000000"/>
	<stop  offset="1" style="stop-color:#1A1A1A"/>
</linearGradient>
<polygon class="st1" points="763.2,2137 344.6,2173.3 715.9,1568.2 "/>
<linearGradient id="SVGID_3_" gradientUnits="userSpaceOnUse" x1="1359.7076" y1="1656.2223" x2="1714.5841" y2="1656.2223" gradientTransform="matrix(0.2731 0.962 -0.962 0.2731 2549.9026 367.1552)">
	<stop  offset="0" style="stop-color:#000000"/>
	<stop  offset="1" style="stop-color:#1A1A1A"/>
</linearGradient>
<polygon class="st2" points="1529.1,2115.8 1347.2,2491 1138.9,2181.2 "/>
<linearGradient id="SVGID_4_" gradientUnits="userSpaceOnUse" x1="993.0131" y1="586.54" x2="1368.6271" y2="586.54" gradientTransform="matrix(-0.8519 0.5237 -0.5237 -0.8519 2402.6736 2311.7639)">
	<stop  offset="0" style="stop-color:#000000"/>
	<stop  offset="1" style="stop-color:#1A1A1A"/>
</linearGradient>
<polygon class="st3" points="1347.2,2491 928.6,2527.3 1138.9,2181.2 "/>
<linearGradient id="SVGID_5_" gradientUnits="userSpaceOnUse" x1="847.3079" y1="980.6477" x2="1009.5874" y2="980.6477" gradientTransform="matrix(-0.8519 0.5237 -0.5237 -0.8519 2402.6736 2311.7639)">
	<stop  offset="0" style="stop-color:#000000"/>
	<stop  offset="1" style="stop-color:#1A1A1A"/>
</linearGradient>
<polygon class="st4" points="1209.5,1988.7 1028.6,2004.4 1119.5,1854.9 "/>
<linearGradient id="SVGID_6_" gradientUnits="userSpaceOnUse" x1="-134.3384" y1="1968.9437" x2="265.5157" y2="1968.9437" gradientTransform="matrix(0.9216 -0.3882 0.3882 0.9216 -157.8623 634.3867)">
	<stop  offset="0" style="stop-color:#000000"/>
	<stop  offset="1" style="stop-color:#1A1A1A"/>
</linearGradient>
<polygon class="st5" points="344.6,2173.3 763.2,2137 963.8,2684.3 "/>
<rect x="2665" y="-481" class="st6" width="164" height="164"/>
<g>
	<linearGradient id="SVGID_7_" gradientUnits="userSpaceOnUse" x1="598.8746" y1="141.7164" x2="598.8746" y2="141.7164">
		<stop  offset="0" style="stop-color:#000000"/>
		<stop  offset="1" style="stop-color:#1A1A1A"/>
	</linearGradient>
	<path class="st7" d="M598.9,141.7"/>
	<linearGradient id="SVGID_8_" gradientUnits="userSpaceOnUse" x1="932.5601" y1="20.8846" x2="932.5601" y2="20.8846">
		<stop  offset="0" style="stop-color:#000000"/>
		<stop  offset="1" style="stop-color:#1A1A1A"/>
	</linearGradient>
	<path class="st8" d="M932.6,20.9"/>
	<linearGradient id="SVGID_9_" gradientUnits="userSpaceOnUse" x1="-30" y1="468" x2="1963" y2="468">
		<stop  offset="0" style="stop-color:#000000"/>
		<stop  offset="1" style="stop-color:#1A1A1A"/>
	</linearGradient>
	<polyline class="st9" points="597.9,141.7 -30,17.3 -30,575.7 827.6,924 827.7,924 1963,588.2 1963,12 1194,155.9 932.1,20.9 	"/>
</g>
<g>
	<linearGradient id="SVGID_10_" gradientUnits="userSpaceOnUse" x1="-30" y1="470.6654" x2="827.1972" y2="470.6654">
		<stop  offset="0" style="stop-color:#000000"/>
		<stop  offset="1" style="stop-color:#1A1A1A"/>
	</linearGradient>
	<polygon class="st10" points="-30,3.3 597.9,127.7 827.2,938 -30,589.7 	"/>
	<linearGradient id="SVGID_11_" gradientUnits="userSpaceOnUse" x1="598.3746" y1="349.9424" x2="932.0601" y2="349.9424">
		<stop  offset="0" style="stop-color:#000000"/>
		<stop  offset="1" style="stop-color:#1A1A1A"/>
	</linearGradient>
	<polygon class="st11" points="598.4,127.7 932.1,6.9 759,693 	"/>
	<linearGradient id="SVGID_12_" gradientUnits="userSpaceOnUse" x1="759" y1="430.9424" x2="1194.0671" y2="430.9424">
		<stop  offset="0" style="stop-color:#000000"/>
		<stop  offset="1" style="stop-color:#1A1A1A"/>
	</linearGradient>
	<polygon class="st12" points="932.1,6.9 1194.1,141.9 805,855 759,695 	"/>
	<linearGradient id="SVGID_13_" gradientUnits="userSpaceOnUse" x1="804.75" y1="468" x2="1963" y2="468">
		<stop  offset="0" style="stop-color:#000000"/>
		<stop  offset="1" style="stop-color:#1A1A1A"/>
	</linearGradient>
	<polygon class="st13" points="1193.6,141.9 1963,-2 1963,602.2 827.4,938 804.8,856 	"/>
</g>
<g>
	<linearGradient id="SVGID_14_" gradientUnits="userSpaceOnUse" x1="-329" y1="2002.2388" x2="346.2273" y2="2002.2388">
		<stop  offset="0" style="stop-color:#000000"/>
		<stop  offset="1" style="stop-color:#1A1A1A"/>
	</linearGradient>
	<polygon class="st14" points="-29,1835 346.2,2169.5 -329,2037 	"/>
	
		<linearGradient id="SVGID_15_" gradientUnits="userSpaceOnUse" x1="727.6906" y1="2141.4111" x2="1491.1234" y2="2141.4111" gradientTransform="matrix(0.2711 0.9625 -0.9625 0.2711 1830.4491 672.782)">
		<stop  offset="0" style="stop-color:#000000"/>
		<stop  offset="1" style="stop-color:#1A1A1A"/>
	</linearGradient>
	<polygon class="st15" points="346.2,2169.5 250.5,2666.9 -329,2037 	"/>
	
		<linearGradient id="SVGID_16_" gradientUnits="userSpaceOnUse" x1="-78.4299" y1="1157.6771" x2="403.6543" y2="1157.6771" gradientTransform="matrix(-0.1217 -0.9926 0.9926 -0.1217 -482.5305 2677.7917)">
		<stop  offset="0" style="stop-color:#000000"/>
		<stop  offset="1" style="stop-color:#1A1A1A"/>
	</linearGradient>
	<polygon class="st16" points="250.5,2666.9 346.2,2169.5 1047,2117 	"/>
</g>
</svg>
