<?xml version="1.0" encoding="utf-8"?>
<!-- Generator: Adobe Illustrator 19.1.1, SVG Export Plug-In . SVG Version: 6.00 Build 0)  -->
<svg version="1.1" id="Calque_1" xmlns="http://www.w3.org/2000/svg" xmlns:xlink="http://www.w3.org/1999/xlink" x="0px" y="0px"
	 viewBox="0 0 1920 1080" style="enable-background:new 0 0 1920 1080;" xml:space="preserve">
<style type="text/css">
	.st0{fill:url(#SVGID_1_);}
	.st1{fill:url(#SVGID_2_);}
	.st2{fill:url(#SVGID_3_);}
	.st3{fill:url(#SVGID_4_);}
	.st4{fill:url(#SVGID_5_);}
	.st5{fill:url(#SVGID_6_);}
	.st6{fill:url(#SVGID_7_);}
	.st7{fill:url(#SVGID_8_);}
	.st8{fill:url(#SVGID_9_);}
	.st9{fill:url(#SVGID_10_);}
</style>
<linearGradient id="SVGID_1_" gradientUnits="userSpaceOnUse" x1="-529.247" y1="2984.3833" x2="-392.6373" y2="2984.3833" gradientTransform="matrix(-0.8519 -0.3843 -0.5237 0.6252 2402.6736 -622.8292)">
	<stop  offset="0" style="stop-color:#000000"/>
	<stop  offset="1" style="stop-color:#1A1A1A"/>
</linearGradient>
<polygon class="st0" points="1326.1,1403.9 1173.9,1394.2 1250.4,1486.6 "/>
<linearGradient id="SVGID_2_" gradientUnits="userSpaceOnUse" x1="31" y1="-438.646" x2="599.418" y2="-438.646" gradientTransform="matrix(1 0 0 -0.7339 0 1073.6606)">
	<stop  offset="0" style="stop-color:#000000"/>
	<stop  offset="1" style="stop-color:#1A1A1A"/>
</linearGradient>
<polygon class="st1" points="283.5,1498.9 599.4,1292.2 31,1374.1 "/>
<linearGradient id="SVGID_3_" gradientUnits="userSpaceOnUse" x1="-20" y1="121" x2="0" y2="121">
	<stop  offset="0" style="stop-color:#000000"/>
	<stop  offset="1" style="stop-color:#1A1A1A"/>
</linearGradient>
<rect x="-20" y="121" class="st2" width="20" height="0"/>
<linearGradient id="SVGID_4_" gradientUnits="userSpaceOnUse" x1="243.7945" y1="184.82" x2="2553.7944" y2="602.8199">
	<stop  offset="0" style="stop-color:#1A1A1A"/>
	<stop  offset="1" style="stop-color:#000000"/>
</linearGradient>
<polygon class="st3" points="1645,949 201,351 961,43 2293,45 "/>
<linearGradient id="SVGID_5_" gradientUnits="userSpaceOnUse" x1="166.3728" y1="1230.5974" x2="358.3728" y2="454.5974">
	<stop  offset="0" style="stop-color:#000000"/>
	<stop  offset="1" style="stop-color:#1A1A1A"/>
</linearGradient>
<polygon class="st4" points="201,351 -81.5,1041 -96,267 961,43 "/>
<linearGradient id="SVGID_6_" gradientUnits="userSpaceOnUse" x1="1453.6757" y1="1159.51" x2="-188.3243" y2="613.51">
	<stop  offset="0" style="stop-color:#000000"/>
	<stop  offset="1" style="stop-color:#1A1A1A"/>
</linearGradient>
<polygon class="st5" points="1649,949 605,607 -81.5,1041 201,351 "/>
<linearGradient id="SVGID_7_" gradientUnits="userSpaceOnUse" x1="958.5408" y1="461.6238" x2="1638.5408" y2="269.6238">
	<stop  offset="0" style="stop-color:#000000"/>
	<stop  offset="1" style="stop-color:#1A1A1A"/>
</linearGradient>
<polygon class="st6" points="1731,43 1079,45 1225,769 "/>
<linearGradient id="SVGID_8_" gradientUnits="userSpaceOnUse" x1="1241" y1="319" x2="1731" y2="319">
	<stop  offset="0" style="stop-color:#1A1A1A"/>
	<stop  offset="1" style="stop-color:#000000"/>
</linearGradient>
<polygon class="st7" points="1731,45 1241,45 1349,593 "/>
<linearGradient id="SVGID_9_" gradientUnits="userSpaceOnUse" x1="1337" y1="261" x2="1731" y2="261">
	<stop  offset="0" style="stop-color:#000000"/>
	<stop  offset="1" style="stop-color:#1A1A1A"/>
</linearGradient>
<polygon class="st8" points="1731,51 1337,61 1421,471 "/>
<linearGradient id="SVGID_10_" gradientUnits="userSpaceOnUse" x1="1971.6768" y1="116.5676" x2="1423.6768" y2="868.5676">
	<stop  offset="0" style="stop-color:#000000"/>
	<stop  offset="1" style="stop-color:#1A1A1A"/>
</linearGradient>
<polygon class="st9" points="1791,83 1263,781 2225,77 "/>
</svg>
