<?xml version="1.0" encoding="utf-8"?>
<!-- Generator: Adobe Illustrator 19.1.1, SVG Export Plug-In . SVG Version: 6.00 Build 0)  -->
<svg version="1.1" xmlns="http://www.w3.org/2000/svg" xmlns:xlink="http://www.w3.org/1999/xlink" x="0px" y="0px"
	 viewBox="0 0 900 600" style="enable-background:new 0 0 900 600;" xml:space="preserve">
<style type="text/css">
	.st0{fill:none;stroke:#FFFFFF;stroke-width:0.25;stroke-miterlimit:10;}
	.st1{opacity:0.25;}
	.st2{fill:#FFFFFF;}
</style>
<g id="Calque_1">
</g>
<g id="Calque_2">
	<line class="st0" x1="621.7" y1="173" x2="554.9" y2="324.8"/>
	<line class="st0" x1="586.9" y1="141.3" x2="435.5" y2="409.1"/>
	<line class="st0" x1="561" y1="110.2" x2="373.2" y2="311"/>
	<line class="st0" x1="78.1" y1="109.6" x2="814.6" y2="94.6"/>
	<line class="st0" x1="114.1" y1="148.6" x2="844.6" y2="132.1"/>
	<line class="st0" x1="255.1" y1="180.1" x2="814.6" y2="166.6"/>
	<line class="st0" x1="777.1" y1="216.1" x2="864.1" y2="111.1"/>
	<line class="st0" x1="879.1" y1="168.1" x2="784.6" y2="58.6"/>
	<line class="st0" x1="693.1" y1="223.6" x2="450.1" y2="40.6"/>
	<line class="st0" x1="694.6" y1="231.1" x2="222.1" y2="552.1"/>
	<line class="st0" x1="463.6" y1="487.6" x2="370.6" y2="180.1"/>
	<line class="st0" x1="270.1" y1="246.1" x2="724.6" y2="372.1"/>
	<line class="st0" x1="130.6" y1="322.6" x2="849.1" y2="517.6"/>
	<line class="st0" x1="640.6" y1="322.6" x2="769.6" y2="562.6"/>
	<line class="st0" x1="348.1" y1="237.1" x2="106.6" y2="381.1"/>
	<line class="st0" x1="73.6" y1="186.1" x2="819.1" y2="229.6"/>
	<line class="st0" x1="595.6" y1="70.6" x2="522.1" y2="543.1"/>
	<line class="st0" x1="45.1" y1="397.6" x2="912.1" y2="106.6"/>
	<line class="st0" x1="640.6" y1="79.6" x2="207.1" y2="282.1"/>
	<g class="st1">
		<circle class="st2" cx="557.3" cy="326.3" r="8.2"/>
		<circle class="st2" cx="653.3" cy="351.3" r="8.2"/>
		<circle class="st2" cx="730.3" cy="484.3" r="8.2"/>
		<circle class="st2" cx="540.3" cy="433.3" r="8.2"/>
		<circle class="st2" cx="400.3" cy="280.3" r="8.2"/>
		<circle class="st2" cx="547.3" cy="214.3" r="8.2"/>
		<circle class="st2" cx="435.3" cy="175.3" r="8.2"/>
		<circle class="st2" cx="587.3" cy="136.3" r="8.2"/>
		<circle class="st2" cx="844.3" cy="130.3" r="8.2"/>
		<circle class="st2" cx="437.3" cy="404.3" r="8.2"/>
		<circle class="st2" cx="182.3" cy="334.3" r="8.2"/>
		<circle class="st2" cx="113.3" cy="150.3" r="8.2"/>
		<circle class="st2" cx="315.3" cy="258.3" r="8.2"/>
	</g>
	<line class="st0" x1="196.6" y1="43.6" x2="55.6" y2="223.6"/>
	<line class="st0" x1="84.1" y1="67.6" x2="268.6" y2="573.1"/>
</g>
</svg>
