<?xml version="1.0" encoding="utf-8"?>
<!-- Generator: Adobe Illustrator 19.1.1, SVG Export Plug-In . SVG Version: 6.00 Build 0)  -->
<svg version="1.1" xmlns="http://www.w3.org/2000/svg" xmlns:xlink="http://www.w3.org/1999/xlink" x="0px" y="0px"
	 viewBox="0 0 1000 1000" style="enable-background:new 0 0 1000 1000;" xml:space="preserve">
<style type="text/css">
	.st0{display:none;}
	.st1{display:inline;}
	.st2{fill:none;stroke:#FFFFFF;stroke-miterlimit:10;}
	.st3{fill:none;stroke:#FFFFFF;stroke-width:3;stroke-miterlimit:10;}
	.st4{fill:#FFFFFF;}
	.st5{fill:none;stroke:#FFFFFF;stroke-width:2;stroke-miterlimit:10;}
</style>
<g id="Calque_1" class="st0">
	<rect y="0" class="st1" width="1000" height="1000"/>
</g>
<g id="Calque_2">
	<circle class="st2" cx="447.1" cy="480" r="374.3"/>
	<circle class="st2" cx="447.1" cy="480" r="332.7"/>
	<line class="st3" x1="594.9" y1="338.1" x2="953" y2="337"/>
	<line class="st3" x1="656.5" y1="864.9" x2="413.4" y2="606.3"/>
	<g>
		<path class="st4" d="M841.4,354.6L841.4,354.6l-1.3,0.7l-0.2-0.8l1.6-0.9l0.9,0l0.1,7.4l-1,0L841.4,354.6z"/>
		<path class="st4" d="M849.6,354.4l-2.8,0l-0.3,1.9c0.2,0,0.3,0,0.6,0c0.6,0,1.1,0.1,1.6,0.4c0.6,0.3,1.1,1,1.1,1.9
			c0,1.5-1.1,2.5-2.7,2.6c-0.8,0-1.5-0.2-1.9-0.4l0.2-0.8c0.3,0.2,0.9,0.4,1.6,0.4c0.9,0,1.8-0.6,1.7-1.6c0-1-0.7-1.6-2.1-1.6
			c-0.4,0-0.8,0.1-1,0.1l0.5-3.6l3.6,0L849.6,354.4z"/>
		<path class="st4" d="M851,361l0-0.6l0.8-0.8c1.9-1.8,2.7-2.8,2.7-3.9c0-0.8-0.4-1.4-1.5-1.4c-0.7,0-1.2,0.4-1.6,0.6l-0.3-0.7
			c0.5-0.4,1.2-0.8,2.1-0.8c1.6,0,2.3,1.1,2.3,2.1c0,1.4-1,2.5-2.5,4l-0.6,0.6l0,0l3.3,0l0,0.8L851,361z"/>
		<path class="st4" d="M860,360.9l0-2l-3.5,0l0-0.7l3.3-4.8l1.1,0l0,4.6l1,0l0,0.8l-1,0l0,2L860,360.9z M860,358.1l0-2.5
			c0-0.4,0-0.8,0-1.2l0,0c-0.2,0.4-0.4,0.8-0.6,1.1l-1.8,2.5l0,0L860,358.1z"/>
		<path class="st4" d="M867.1,354.3l-2.8,0l-0.3,1.9c0.2,0,0.3,0,0.6,0c0.6,0,1.1,0.1,1.6,0.4c0.6,0.3,1.1,1,1.1,1.9
			c0,1.5-1.1,2.5-2.7,2.6c-0.8,0-1.5-0.2-1.9-0.4l0.2-0.8c0.3,0.2,0.9,0.4,1.6,0.4c0.9,0,1.8-0.6,1.7-1.6c0-1-0.7-1.6-2.1-1.6
			c-0.4,0-0.8,0.1-1,0.1l0.5-3.6l3.6,0L867.1,354.3z"/>
		<path class="st4" d="M873,354.3l-2.8,0l-0.3,1.9c0.2,0,0.3,0,0.6,0c0.6,0,1.1,0.1,1.6,0.4c0.6,0.3,1.1,1,1.1,1.9
			c0,1.5-1.1,2.5-2.7,2.6c-0.8,0-1.5-0.2-1.9-0.4l0.2-0.8c0.3,0.2,0.9,0.4,1.6,0.4c0.9,0,1.8-0.6,1.7-1.6c0-1-0.7-1.6-2.1-1.6
			c-0.4,0-0.8,0.1-1,0.1l0.5-3.6l3.6,0L873,354.3z"/>
		<path class="st4" d="M879.3,353.4l0,0.7l-3.2,6.8l-1,0l3.2-6.6l0,0l-3.6,0l0-0.8L879.3,353.4z"/>
		<path class="st4" d="M880.2,358.9c0-0.9,0.5-1.6,1.5-2l0,0c-0.8-0.4-1.2-1-1.2-1.7c0-1.2,1-2,2.3-2c1.4,0,2.2,0.9,2.2,1.8
			c0,0.6-0.3,1.3-1.2,1.7l0,0c0.9,0.4,1.5,1,1.5,1.9c0,1.3-1.1,2.2-2.5,2.2C881.2,360.9,880.3,360,880.2,358.9z M884.2,358.8
			c0-0.9-0.6-1.3-1.6-1.6c-0.9,0.3-1.3,0.8-1.3,1.5c0,0.8,0.5,1.4,1.5,1.4C883.7,360.2,884.2,359.6,884.2,358.8z M881.5,355.1
			c0,0.7,0.6,1.1,1.4,1.4c0.6-0.2,1.1-0.7,1.1-1.4c0-0.6-0.4-1.2-1.3-1.2C881.9,354,881.4,354.5,881.5,355.1z"/>
		<path class="st4" d="M890.6,354.1l-2.8,0l-0.3,1.9c0.2,0,0.3,0,0.6,0c0.6,0,1.1,0.1,1.6,0.4c0.6,0.3,1.1,1,1.1,1.9
			c0,1.5-1.1,2.5-2.7,2.6c-0.8,0-1.5-0.2-1.9-0.4l0.2-0.8c0.3,0.2,0.9,0.4,1.6,0.4c0.9,0,1.8-0.6,1.7-1.6c0-1-0.7-1.6-2.1-1.6
			c-0.4,0-0.8,0.1-1,0.1l0.5-3.6l3.6,0L890.6,354.1z"/>
		<path class="st4" d="M895.2,360.7l0-2l-3.5,0l0-0.7l3.3-4.8l1.1,0l0,4.6l1,0l0,0.8l-1,0l0,2L895.2,360.7z M895.2,357.9l0-2.5
			c0-0.4,0-0.8,0-1.2l0,0c-0.2,0.4-0.4,0.8-0.6,1.1l-1.8,2.5l0,0L895.2,357.9z"/>
		<path class="st4" d="M902.3,354.1l-2.8,0l-0.3,1.9c0.2,0,0.3,0,0.6,0c0.6,0,1.1,0.1,1.6,0.4c0.6,0.3,1.1,1,1.1,1.9
			c0,1.5-1.1,2.5-2.7,2.6c-0.8,0-1.5-0.2-1.9-0.4l0.2-0.8c0.3,0.2,0.9,0.4,1.6,0.4c0.9,0,1.8-0.6,1.7-1.6c0-1-0.7-1.6-2.1-1.6
			c-0.4,0-0.8,0.1-1,0.1l0.5-3.6l3.6,0L902.3,354.1z"/>
		<path class="st4" d="M903.5,362c0.2-0.7,0.5-1.9,0.7-2.7l1.1-0.1c-0.3,1-0.8,2.2-1.1,2.8L903.5,362z"/>
		<path class="st4" d="M910.6,354l-2.8,0l-0.3,1.9c0.2,0,0.3,0,0.6,0c0.6,0,1.1,0.1,1.6,0.4c0.6,0.3,1.1,1,1.1,1.9
			c0,1.5-1.1,2.5-2.7,2.6c-0.8,0-1.5-0.2-1.9-0.4l0.2-0.8c0.3,0.2,0.9,0.4,1.6,0.4c0.9,0,1.8-0.6,1.7-1.6c0-1-0.7-1.6-2.1-1.6
			c-0.4,0-0.8,0.1-1,0.1l0.5-3.6l3.6,0L910.6,354z"/>
		<path class="st4" d="M915.1,360.6l0-2l-3.5,0l0-0.7l3.3-4.8l1.1,0l0,4.6l1,0l0,0.8l-1,0l0,2L915.1,360.6z M915.1,357.7l0-2.5
			c0-0.4,0-0.8,0-1.2l0,0c-0.2,0.4-0.4,0.8-0.6,1.1l-1.8,2.5l0,0L915.1,357.7z"/>
		<path class="st4" d="M922.3,353.9l-2.8,0l-0.3,1.9c0.2,0,0.3,0,0.6,0c0.6,0,1.1,0.1,1.6,0.4c0.6,0.3,1.1,1,1.1,1.9
			c0,1.5-1.1,2.5-2.7,2.6c-0.8,0-1.5-0.2-1.9-0.4l0.2-0.8c0.3,0.2,0.9,0.4,1.6,0.4c0.9,0,1.8-0.6,1.7-1.6c0-1-0.7-1.6-2.1-1.6
			c-0.4,0-0.8,0.1-1,0.1l0.5-3.6l3.6,0L922.3,353.9z"/>
		<path class="st4" d="M928,353.8c-0.2,0-0.5,0-0.8,0.1c-1.6,0.3-2.4,1.4-2.6,2.7l0,0c0.4-0.5,1-0.9,1.8-0.9c1.3,0,2.2,0.9,2.3,2.4
			c0,1.4-0.9,2.6-2.5,2.6c-1.6,0-2.6-1.2-2.6-3.1c0-1.5,0.5-2.6,1.2-3.4c0.6-0.6,1.4-1,2.4-1.1c0.3,0,0.5-0.1,0.7-0.1L928,353.8z
			 M927.7,358c0-1.1-0.6-1.7-1.5-1.7c-0.6,0-1.2,0.4-1.4,0.9c-0.1,0.1-0.1,0.3-0.1,0.4c0,1.2,0.6,2.1,1.6,2.1
			C927.1,359.8,927.7,359.1,927.7,358z"/>
		<path class="st4" d="M934,353.8l-2.8,0l-0.3,1.9c0.2,0,0.3,0,0.6,0c0.6,0,1.1,0.1,1.6,0.4c0.6,0.3,1.1,1,1.1,1.9
			c0,1.5-1.1,2.5-2.7,2.6c-0.8,0-1.5-0.2-1.9-0.4l0.2-0.8c0.3,0.2,0.9,0.4,1.6,0.4c0.9,0,1.8-0.6,1.7-1.6c0-1-0.7-1.6-2.1-1.6
			c-0.4,0-0.8,0.1-1,0.1l0.5-3.6l3.6,0L934,353.8z"/>
		<path class="st4" d="M939.7,353.7c-0.2,0-0.5,0-0.8,0.1c-1.6,0.3-2.4,1.4-2.6,2.7l0,0c0.4-0.5,1-0.9,1.8-0.9
			c1.3,0,2.2,0.9,2.3,2.4c0,1.4-0.9,2.6-2.5,2.6c-1.6,0-2.6-1.2-2.6-3.1c0-1.5,0.5-2.6,1.2-3.4c0.6-0.6,1.4-1,2.4-1.1
			c0.3,0,0.5-0.1,0.7-0.1L939.7,353.7z M939.4,358c0-1.1-0.6-1.7-1.5-1.7c-0.6,0-1.2,0.4-1.4,0.9c-0.1,0.1-0.1,0.3-0.1,0.4
			c0,1.2,0.6,2.1,1.6,2.1C938.9,359.7,939.4,359,939.4,358z"/>
		<path class="st4" d="M944.5,360.4l0-2l-3.5,0l0-0.7l3.3-4.8l1.1,0l0,4.6l1,0l0,0.8l-1,0l0,2L944.5,360.4z M944.4,357.5l0-2.5
			c0-0.4,0-0.8,0-1.2l0,0c-0.2,0.4-0.4,0.8-0.6,1.1l-1.8,2.5l0,0L944.4,357.5z"/>
		<path class="st4" d="M950.3,360.3l0-2l-3.5,0l0-0.7l3.3-4.8l1.1,0l0,4.6l1,0l0,0.8l-1,0l0,2L950.3,360.3z M950.3,357.5l0-2.5
			c0-0.4,0-0.8,0-1.2l0,0c-0.2,0.4-0.4,0.8-0.6,1.1l-1.8,2.5l0,0L950.3,357.5z"/>
		<path class="st4" d="M957.5,353.7l-2.8,0l-0.3,1.9c0.2,0,0.3,0,0.6,0c0.6,0,1.1,0.1,1.6,0.4c0.6,0.3,1.1,1,1.1,1.9
			c0,1.5-1.1,2.5-2.7,2.6c-0.8,0-1.5-0.2-1.9-0.4l0.2-0.8c0.3,0.2,0.9,0.4,1.6,0.4c0.9,0,1.8-0.6,1.7-1.6c0-1-0.7-1.6-2.1-1.6
			c-0.4,0-0.8,0.1-1,0.1l0.5-3.6l3.6,0L957.5,353.7z"/>
		<path class="st4" d="M842.5,374.8l0-2l-3.5,0l0-0.7l3.3-4.8l1.1,0l0,4.6l1,0l0,0.8l-1,0l0,2L842.5,374.8z M842.5,372l0-2.5
			c0-0.4,0-0.8,0-1.2l0,0c-0.2,0.4-0.4,0.8-0.6,1.1l-1.8,2.5l0,0L842.5,372z"/>
		<path class="st4" d="M848.4,374.7l0-2l-3.5,0l0-0.7l3.3-4.8l1.1,0l0,4.6l1,0l0,0.8l-1,0l0,2L848.4,374.7z M848.3,371.9l0-2.5
			c0-0.4,0-0.8,0-1.2l0,0c-0.2,0.4-0.4,0.8-0.6,1.1l-1.8,2.5l0,0L848.3,371.9z"/>
		<path class="st4" d="M855.5,368.1l-2.8,0l-0.3,1.9c0.2,0,0.3,0,0.6,0c0.6,0,1.1,0.1,1.6,0.4c0.6,0.3,1.1,1,1.1,1.9
			c0,1.5-1.1,2.5-2.7,2.6c-0.8,0-1.5-0.2-1.9-0.4l0.2-0.8c0.3,0.2,0.9,0.4,1.6,0.4c0.9,0,1.8-0.6,1.7-1.6c0-1-0.7-1.6-2.1-1.6
			c-0.4,0-0.8,0.1-1,0.1l0.5-3.6l3.6,0L855.5,368.1z"/>
		<path class="st4" d="M860.1,374.7l0-2l-3.5,0l0-0.7l3.3-4.8l1.1,0l0,4.6l1,0l0,0.8l-1,0l0,2L860.1,374.7z M860.1,371.8l0-2.5
			c0-0.4,0-0.8,0-1.2l0,0c-0.2,0.4-0.4,0.8-0.6,1.1l-1.8,2.5l0,0L860.1,371.8z"/>
		<path class="st4" d="M862.7,372.7c0-0.9,0.5-1.6,1.5-2l0,0c-0.8-0.4-1.2-1-1.2-1.7c0-1.2,1-2,2.3-2c1.4,0,2.2,0.9,2.2,1.8
			c0,0.6-0.3,1.3-1.2,1.7l0,0c0.9,0.4,1.5,1,1.5,1.9c0,1.3-1.1,2.2-2.5,2.2C863.7,374.8,862.8,373.8,862.7,372.7z M866.7,372.7
			c0-0.9-0.6-1.3-1.6-1.6c-0.9,0.3-1.3,0.8-1.3,1.5c0,0.8,0.5,1.4,1.5,1.4C866.2,374,866.8,373.4,866.7,372.7z M864,369
			c0,0.7,0.6,1.1,1.4,1.4c0.6-0.2,1.1-0.7,1.1-1.4c0-0.6-0.4-1.2-1.3-1.2C864.4,367.8,864,368.3,864,369z"/>
		<path class="st4" d="M873.5,367.1l0,0.7l-3.2,6.8l-1,0l3.2-6.6l0,0l-3.6,0l0-0.8L873.5,367.1z"/>
		<path class="st4" d="M877.7,374.5l0-2l-3.5,0l0-0.7l3.3-4.8l1.1,0l0,4.6l1,0l0,0.8l-1,0l0,2L877.7,374.5z M877.7,371.7l0-2.5
			c0-0.4,0-0.8,0-1.2l0,0c-0.2,0.4-0.4,0.8-0.6,1.1l-1.8,2.5l0,0L877.7,371.7z"/>
		<path class="st4" d="M884.8,367.9l-2.8,0l-0.3,1.9c0.2,0,0.3,0,0.6,0c0.6,0,1.1,0.1,1.6,0.4c0.6,0.3,1.1,1,1.1,1.9
			c0,1.5-1.1,2.5-2.7,2.6c-0.8,0-1.5-0.2-1.9-0.4l0.2-0.8c0.3,0.2,0.9,0.4,1.6,0.4c0.9,0,1.8-0.6,1.7-1.6c0-1-0.7-1.6-2.1-1.6
			c-0.4,0-0.8,0.1-1,0.1l0.5-3.6l3.6,0L884.8,367.9z"/>
		<path class="st4" d="M889.4,374.5l0-2l-3.5,0l0-0.7l3.3-4.8l1.1,0l0,4.6l1,0l0,0.8l-1,0l0,2L889.4,374.5z M889.4,371.6l0-2.5
			c0-0.4,0-0.8,0-1.2l0,0c-0.2,0.4-0.4,0.8-0.6,1.1l-1.8,2.5l0,0L889.4,371.6z"/>
		<path class="st4" d="M896.6,367.8l-2.8,0l-0.3,1.9c0.2,0,0.3,0,0.6,0c0.6,0,1.1,0.1,1.6,0.4c0.6,0.3,1.1,1,1.1,1.9
			c0,1.5-1.1,2.5-2.7,2.6c-0.8,0-1.5-0.2-1.9-0.4l0.2-0.8c0.3,0.2,0.9,0.4,1.6,0.4c0.9,0,1.8-0.6,1.7-1.6c0-1-0.7-1.6-2.1-1.6
			c-0.4,0-0.8,0.1-1,0.1l0.5-3.6l3.6,0L896.6,367.8z"/>
		<path class="st4" d="M899.3,366.7l0,3.2l3.7,0l0-3.2l1,0l0.1,7.7l-1,0l0-3.6l-3.7,0l0,3.6l-1,0l-0.1-7.7L899.3,366.7z"/>
		<path class="st4" d="M905.2,375.7c0.2-0.7,0.5-1.9,0.7-2.7l1.1-0.1c-0.3,1-0.8,2.2-1.1,2.8L905.2,375.7z M905.6,369.7
			c0-0.4,0.3-0.7,0.7-0.7c0.4,0,0.7,0.3,0.7,0.7c0,0.4-0.3,0.7-0.7,0.7C905.9,370.4,905.6,370.1,905.6,369.7z"/>
		<path class="st4" d="M912.4,367.8L912.4,367.8l-1.3,0.7l-0.2-0.8l1.6-0.9l0.9,0l0.1,7.4l-1,0L912.4,367.8z"/>
		<path class="st4" d="M920.5,367.7l-2.8,0l-0.3,1.9c0.2,0,0.3,0,0.6,0c0.6,0,1.1,0.1,1.6,0.4c0.6,0.3,1.1,1,1.1,1.9
			c0,1.5-1.1,2.5-2.7,2.6c-0.8,0-1.5-0.2-1.9-0.4l0.2-0.8c0.3,0.2,0.9,0.4,1.6,0.4c0.9,0,1.8-0.6,1.7-1.6c0-1-0.7-1.6-2.1-1.6
			c-0.4,0-0.8,0.1-1,0.1l0.5-3.6l3.6,0L920.5,367.7z"/>
		<path class="st4" d="M925.1,374.2l0-2l-3.5,0l0-0.7l3.3-4.8l1.1,0l0,4.6l1,0l0,0.8l-1,0l0,2L925.1,374.2z M925.1,371.4l0-2.5
			c0-0.4,0-0.8,0-1.2l0,0c-0.2,0.4-0.4,0.8-0.6,1.1l-1.8,2.5l0,0L925.1,371.4z"/>
		<path class="st4" d="M927.9,374.2l0-0.6l0.8-0.8c1.9-1.8,2.7-2.8,2.7-3.9c0-0.8-0.4-1.4-1.5-1.4c-0.7,0-1.2,0.4-1.6,0.6l-0.3-0.7
			c0.5-0.4,1.2-0.8,2.1-0.8c1.6,0,2.3,1.1,2.3,2.1c0,1.4-1,2.5-2.5,4l-0.6,0.6l0,0l3.3,0l0,0.8L927.9,374.2z"/>
		<path class="st4" d="M936.8,374.1l0-2l-3.5,0l0-0.7l3.3-4.8l1.1,0l0,4.6l1,0l0,0.8l-1,0l0,2L936.8,374.1z M936.8,371.3l0-2.5
			c0-0.4,0-0.8,0-1.2l0,0c-0.2,0.4-0.4,0.8-0.6,1.1l-1.8,2.5l0,0L936.8,371.3z"/>
		<path class="st4" d="M939.5,372.2c0-0.9,0.5-1.6,1.5-2l0,0c-0.8-0.4-1.2-1-1.2-1.7c0-1.2,1-2,2.3-2c1.4,0,2.2,0.9,2.2,1.8
			c0,0.6-0.3,1.3-1.2,1.7l0,0c0.9,0.4,1.5,1,1.5,1.9c0,1.3-1.1,2.2-2.5,2.2C940.4,374.2,939.5,373.3,939.5,372.2z M943.5,372.1
			c0-0.9-0.6-1.3-1.6-1.6c-0.9,0.3-1.3,0.8-1.3,1.5c0,0.8,0.5,1.4,1.5,1.4C942.9,373.5,943.5,372.9,943.5,372.1z M940.7,368.5
			c0,0.7,0.6,1.1,1.4,1.4c0.6-0.2,1.1-0.7,1.1-1.4c0-0.6-0.4-1.2-1.3-1.2C941.1,367.3,940.7,367.8,940.7,368.5z"/>
		<path class="st4" d="M950.2,366.6l0,0.7l-3.2,6.8l-1,0l3.2-6.6l0,0l-3.6,0l0-0.8L950.2,366.6z"/>
		<path class="st4" d="M951,375.4c0.2-0.7,0.5-1.9,0.7-2.7l1.1-0.1c-0.3,1-0.8,2.2-1.1,2.8L951,375.4z M951.5,369.4
			c0-0.4,0.3-0.7,0.7-0.7c0.4,0,0.7,0.3,0.7,0.7c0,0.4-0.3,0.7-0.7,0.7C951.7,370.1,951.5,369.8,951.5,369.4z"/>
		<path class="st4" d="M842.6,388.5l0-2l-3.5,0l0-0.7l3.3-4.8l1.1,0l0,4.6l1,0l0,0.8l-1,0l0,2L842.6,388.5z M842.6,385.7l0-2.5
			c0-0.4,0-0.8,0-1.2l0,0c-0.2,0.4-0.4,0.8-0.6,1.1l-1.8,2.5l0,0L842.6,385.7z"/>
		<path class="st4" d="M849.7,381.9l-2.8,0l-0.3,1.9c0.2,0,0.3,0,0.6,0c0.6,0,1.1,0.1,1.6,0.4c0.6,0.3,1.1,1,1.1,1.9
			c0,1.5-1.1,2.5-2.7,2.6c-0.8,0-1.5-0.2-1.9-0.4l0.2-0.8c0.3,0.2,0.9,0.4,1.6,0.4c0.9,0,1.8-0.6,1.7-1.6c0-1-0.7-1.6-2.1-1.6
			c-0.4,0-0.8,0.1-1,0.1l0.5-3.6l3.6,0L849.7,381.9z"/>
		<path class="st4" d="M856,381l0,0.7l-3.2,6.8l-1,0l3.2-6.6l0,0l-3.6,0l0-0.8L856,381z"/>
		<path class="st4" d="M861.9,380.9l0,0.7l-3.2,6.8l-1,0l3.2-6.6l0,0l-3.6,0l0-0.8L861.9,380.9z"/>
		<path class="st4" d="M862.8,386.5c0-0.9,0.5-1.6,1.5-2l0,0c-0.8-0.4-1.2-1-1.2-1.7c0-1.2,1-2,2.3-2c1.4,0,2.2,0.9,2.2,1.8
			c0,0.6-0.3,1.3-1.2,1.7l0,0c0.9,0.4,1.5,1,1.5,1.9c0,1.3-1.1,2.2-2.5,2.2C863.8,388.5,862.8,387.5,862.8,386.5z M866.8,386.4
			c0-0.9-0.6-1.3-1.6-1.6c-0.9,0.3-1.3,0.8-1.3,1.5c0,0.8,0.5,1.4,1.5,1.4C866.3,387.7,866.8,387.2,866.8,386.4z M864,382.7
			c0,0.7,0.6,1.1,1.4,1.4c0.6-0.2,1.1-0.7,1.1-1.4c0-0.6-0.4-1.2-1.3-1.2C864.5,381.5,864,382.1,864,382.7z"/>
		<path class="st4" d="M869.4,387.6c0.2,0,0.5,0,0.8,0c0.6-0.1,1.1-0.3,1.5-0.7c0.5-0.4,0.8-1.1,1-2l0,0c-0.4,0.5-1,0.8-1.7,0.8
			c-1.3,0-2.2-1-2.2-2.3c0-1.4,1-2.6,2.5-2.7c1.5,0,2.5,1.2,2.5,3.1c0,1.6-0.5,2.8-1.3,3.5c-0.6,0.6-1.4,0.9-2.2,1
			c-0.4,0.1-0.7,0.1-0.9,0.1L869.4,387.6z M869.7,383.3c0,0.9,0.6,1.6,1.4,1.6c0.7,0,1.2-0.3,1.5-0.8c0.1-0.1,0.1-0.2,0.1-0.4
			c0-1.3-0.5-2.2-1.5-2.2C870.3,381.5,869.7,382.3,869.7,383.3z"/>
		<path class="st4" d="M876,380.6l0,3.2l3.7,0l0-3.2l1,0l0.1,7.7l-1,0l0-3.6l-3.7,0l0,3.6l-1,0l-0.1-7.7L876,380.6z"/>
		<path class="st4" d="M881.2,389.8c0.5,0,0.9-0.2,1.1-0.4c0.3-0.3,0.4-0.8,0.4-2.1l0-4.6l1,0l0,5c0,1.1-0.2,1.8-0.6,2.3
			c-0.4,0.4-1.2,0.6-1.7,0.6L881.2,389.8z M883.7,381.1c0,0.3-0.2,0.6-0.6,0.6c-0.4,0-0.6-0.3-0.6-0.6c0-0.4,0.3-0.6,0.6-0.6
			C883.5,380.5,883.7,380.8,883.7,381.1z"/>
		<path class="st4" d="M886.3,385.2L886.3,385.2c0.2-0.2,0.4-0.4,0.5-0.6l1.6-1.9l1.2,0l-2.1,2.3l2.5,3.2l-1.2,0l-1.9-2.6l-0.5,0.6
			l0,2.1l-1,0l-0.1-8.1l1,0L886.3,385.2z"/>
		<path class="st4" d="M891.9,381.1c0,0.3-0.2,0.6-0.6,0.6c-0.4,0-0.6-0.3-0.6-0.6c0-0.4,0.3-0.6,0.6-0.6
			C891.7,380.4,891.9,380.7,891.9,381.1z M890.9,388.2l0-5.5l1,0l0,5.5L890.9,388.2z"/>
	</g>
	<g>
		<path class="st4" d="M679.9,859.5l-2.8,0l-0.3,1.9c0.2,0,0.3,0,0.6,0c0.6,0,1.1,0.1,1.6,0.4c0.6,0.3,1.1,1,1.1,1.9
			c0,1.5-1.1,2.5-2.7,2.6c-0.8,0-1.5-0.2-1.9-0.4l0.2-0.8c0.3,0.2,0.9,0.4,1.6,0.4c0.9,0,1.8-0.6,1.7-1.6c0-1-0.7-1.6-2.1-1.6
			c-0.4,0-0.8,0.1-1,0.1l0.5-3.6l3.6,0L679.9,859.5z"/>
		<path class="st4" d="M684.5,866.1l0-2l-3.5,0l0-0.7l3.3-4.8l1.1,0l0,4.6l1,0l0,0.8l-1,0l0,2L684.5,866.1z M684.5,863.3l0-2.5
			c0-0.4,0-0.8,0-1.2l0,0c-0.2,0.4-0.4,0.8-0.6,1.1l-1.8,2.5l0,0L684.5,863.3z"/>
		<path class="st4" d="M691.7,859.5l-2.8,0l-0.3,1.9c0.2,0,0.3,0,0.6,0c0.6,0,1.1,0.1,1.6,0.4c0.6,0.3,1.1,1,1.1,1.9
			c0,1.5-1.1,2.5-2.7,2.6c-0.8,0-1.5-0.2-1.9-0.4l0.2-0.8c0.3,0.2,0.9,0.4,1.6,0.4c0.9,0,1.8-0.6,1.7-1.6c0-1-0.7-1.6-2.1-1.6
			c-0.4,0-0.8,0.1-1,0.1l0.5-3.6l3.6,0L691.7,859.5z"/>
		<path class="st4" d="M695.3,859.5L695.3,859.5l-1.3,0.7l-0.2-0.8l1.6-0.9l0.9,0l0.1,7.4l-1,0L695.3,859.5z"/>
		<path class="st4" d="M703.2,859.2c-0.2,0-0.5,0-0.8,0.1c-1.6,0.3-2.4,1.4-2.6,2.7l0,0c0.4-0.5,1-0.9,1.8-0.9
			c1.3,0,2.2,0.9,2.3,2.4c0,1.4-0.9,2.6-2.5,2.6c-1.6,0-2.6-1.2-2.6-3.1c0-1.5,0.5-2.6,1.2-3.4c0.6-0.6,1.4-1,2.4-1.1
			c0.3,0,0.5-0.1,0.7-0.1L703.2,859.2z M702.9,863.5c0-1.1-0.6-1.7-1.5-1.7c-0.6,0-1.2,0.4-1.4,0.9c-0.1,0.1-0.1,0.3-0.1,0.4
			c0,1.2,0.6,2.1,1.6,2.1C702.4,865.3,702.9,864.6,702.9,863.5z"/>
		<path class="st4" d="M709.2,859.3l-2.8,0l-0.3,1.9c0.2,0,0.3,0,0.6,0c0.6,0,1.1,0.1,1.6,0.4c0.6,0.3,1.1,1,1.1,1.9
			c0,1.5-1.1,2.5-2.7,2.6c-0.8,0-1.5-0.2-1.9-0.4l0.2-0.8c0.3,0.2,0.9,0.4,1.6,0.4c0.9,0,1.8-0.6,1.7-1.6c0-1-0.7-1.6-2.1-1.6
			c-0.4,0-0.8,0.1-1,0.1l0.5-3.6l3.6,0L709.2,859.3z"/>
		<path class="st4" d="M711.1,865.9l0-4.8l-0.8,0l0-0.8l0.8,0l0-0.3c0-0.8,0.2-1.5,0.6-1.9c0.4-0.4,0.9-0.5,1.3-0.5
			c0.4,0,0.7,0.1,0.9,0.2l-0.1,0.8c-0.1-0.1-0.4-0.1-0.6-0.1c-0.9,0-1.1,0.8-1.1,1.6l0,0.3l1.3,0l0,0.8l-1.3,0l0,4.8L711.1,865.9z"
			/>
		<path class="st4" d="M716.2,859.4L716.2,859.4l-1.3,0.7l-0.2-0.8l1.6-0.9l0.9,0l0.1,7.4l-1,0L716.2,859.4z"/>
		<path class="st4" d="M719.6,865.3l2.5-3.3c0.2-0.3,0.5-0.6,0.7-0.9l0,0l-3,0l0-0.8l4.2,0l0,0.6l-2.4,3.2c-0.2,0.3-0.5,0.6-0.7,0.9
			l0,0l3.2,0l0,0.8l-4.5,0L719.6,865.3z"/>
		<path class="st4" d="M729.2,859.2l-2.8,0l-0.3,1.9c0.2,0,0.3,0,0.6,0c0.6,0,1.1,0.1,1.6,0.4c0.6,0.3,1.1,1,1.1,1.9
			c0,1.5-1.1,2.5-2.7,2.6c-0.8,0-1.5-0.2-1.9-0.4l0.2-0.8c0.3,0.2,0.9,0.4,1.6,0.4c0.9,0,1.8-0.6,1.7-1.6c0-1-0.7-1.6-2.1-1.6
			c-0.4,0-0.8,0.1-1,0.1l0.5-3.6l3.6,0L729.2,859.2z"/>
		<path class="st4" d="M734.9,859c-0.2,0-0.5,0-0.8,0.1c-1.6,0.3-2.4,1.4-2.6,2.7l0,0c0.4-0.5,1-0.9,1.8-0.9c1.3,0,2.2,0.9,2.3,2.4
			c0,1.4-0.9,2.6-2.5,2.6c-1.6,0-2.6-1.2-2.6-3.1c0-1.5,0.5-2.6,1.2-3.4c0.6-0.6,1.4-1,2.4-1.1c0.3,0,0.5-0.1,0.7-0.1L734.9,859z
			 M734.6,863.3c0-1.1-0.6-1.7-1.5-1.7c-0.6,0-1.2,0.4-1.4,0.9c-0.1,0.1-0.1,0.3-0.1,0.4c0,1.2,0.6,2.1,1.6,2.1
			C734,865.1,734.6,864.4,734.6,863.3z"/>
		<path class="st4" d="M739.7,865.7l0-2l-3.5,0l0-0.7l3.3-4.8l1.1,0l0,4.6l1,0l0,0.8l-1,0l0,2L739.7,865.7z M739.6,862.9l0-2.5
			c0-0.4,0-0.8,0-1.2l0,0c-0.2,0.4-0.4,0.8-0.6,1.1l-1.8,2.5l0,0L739.6,862.9z"/>
		<path class="st4" d="M742.3,863.8c0-0.9,0.5-1.6,1.5-2l0,0c-0.8-0.4-1.2-1-1.2-1.7c0-1.2,1-2,2.3-2c1.4,0,2.2,0.9,2.2,1.8
			c0,0.6-0.3,1.3-1.2,1.7l0,0c0.9,0.4,1.5,1,1.5,1.9c0,1.3-1.1,2.2-2.5,2.2C743.3,865.8,742.3,864.9,742.3,863.8z M746.3,863.7
			c0-0.9-0.6-1.3-1.6-1.6c-0.9,0.3-1.3,0.8-1.3,1.5c0,0.8,0.5,1.4,1.5,1.4C745.7,865.1,746.3,864.5,746.3,863.7z M743.5,860
			c0,0.7,0.6,1.1,1.4,1.4c0.6-0.2,1.1-0.7,1.1-1.4c0-0.6-0.4-1.2-1.3-1.2C744,858.9,743.5,859.4,743.5,860z"/>
		<path class="st4" d="M748.7,865.7l0-4.8l-0.8,0l0-0.8l0.8,0l0-0.3c0-0.8,0.2-1.5,0.6-1.9c0.4-0.4,0.9-0.5,1.3-0.5
			c0.4,0,0.7,0.1,0.9,0.2l-0.1,0.8c-0.1-0.1-0.4-0.1-0.6-0.1c-0.9,0-1.1,0.8-1.1,1.6l0,0.3l1.3,0l0,0.8l-1.3,0l0,4.8L748.7,865.7z"
			/>
		<path class="st4" d="M751.7,864.6c0.3,0.2,0.8,0.4,1.3,0.4c0.7,0,1.1-0.4,1.1-0.8c0-0.5-0.3-0.7-1-1c-1-0.3-1.5-0.9-1.5-1.6
			c0-0.9,0.7-1.6,1.9-1.6c0.6,0,1.1,0.2,1.4,0.3l-0.2,0.7c-0.2-0.1-0.6-0.3-1.1-0.3c-0.6,0-0.9,0.3-0.9,0.8c0,0.5,0.3,0.7,1.1,0.9
			c1,0.4,1.5,0.8,1.5,1.7c0,1-0.7,1.7-2.1,1.7c-0.6,0-1.2-0.1-1.6-0.4L751.7,864.6z"/>
		<path class="st4" d="M761.1,857.5l0,6.7c0,0.5,0,1.1,0.1,1.4l-0.9,0l-0.1-1l0,0c-0.3,0.6-1,1.1-1.9,1.1c-1.3,0-2.4-1.1-2.4-2.8
			c0-1.8,1.1-3,2.5-3c0.8,0,1.4,0.4,1.7,0.8l0,0l0-3.3L761.1,857.5z M760.1,862.3c0-0.1,0-0.3,0-0.4c-0.2-0.6-0.7-1.2-1.5-1.2
			c-1,0-1.6,0.9-1.6,2.1c0,1.1,0.6,2,1.6,2c0.7,0,1.3-0.5,1.5-1.2c0-0.1,0-0.3,0-0.4L760.1,862.3z"/>
		<path class="st4" d="M766.7,858.8c-0.2,0-0.5,0-0.8,0.1c-1.6,0.3-2.4,1.4-2.6,2.7l0,0c0.4-0.5,1-0.9,1.8-0.9
			c1.3,0,2.2,0.9,2.3,2.4c0,1.4-0.9,2.6-2.5,2.6c-1.6,0-2.6-1.2-2.6-3.1c0-1.5,0.5-2.6,1.2-3.4c0.6-0.6,1.4-1,2.4-1.1
			c0.3,0,0.5-0.1,0.7-0.1L766.7,858.8z M766.4,863.1c0-1.1-0.6-1.7-1.5-1.7c-0.6,0-1.2,0.4-1.4,0.9c-0.1,0.1-0.1,0.3-0.1,0.4
			c0,1.2,0.6,2.1,1.6,2.1C765.8,864.9,766.4,864.2,766.4,863.1z"/>
		<path class="st4" d="M772.7,858.9l-2.8,0l-0.3,1.9c0.2,0,0.3,0,0.6,0c0.6,0,1.1,0.1,1.6,0.4c0.6,0.3,1.1,1,1.1,1.9
			c0,1.5-1.1,2.5-2.7,2.6c-0.8,0-1.5-0.2-1.9-0.4l0.2-0.8c0.3,0.2,0.9,0.4,1.6,0.4c0.9,0,1.8-0.6,1.7-1.6c0-1-0.7-1.6-2.1-1.6
			c-0.4,0-0.8,0.1-1,0.1l0.5-3.6l3.6,0L772.7,858.9z"/>
		<path class="st4" d="M778.4,858.7c-0.2,0-0.5,0-0.8,0.1c-1.6,0.3-2.4,1.4-2.6,2.7l0,0c0.4-0.5,1-0.9,1.8-0.9
			c1.3,0,2.2,0.9,2.3,2.4c0,1.4-0.9,2.6-2.5,2.6c-1.6,0-2.6-1.2-2.6-3.1c0-1.5,0.5-2.6,1.2-3.4c0.6-0.6,1.4-1,2.4-1.1
			c0.3,0,0.5-0.1,0.7-0.1L778.4,858.7z M778.1,863c0-1.1-0.6-1.7-1.5-1.7c-0.6,0-1.2,0.4-1.4,0.9c-0.1,0.1-0.1,0.3-0.1,0.4
			c0,1.2,0.6,2.1,1.6,2.1C777.6,864.8,778.2,864.1,778.1,863z"/>
		<path class="st4" d="M783.2,865.4l0-2l-3.5,0l0-0.7l3.3-4.8l1.1,0l0,4.6l1,0l0,0.8l-1,0l0,2L783.2,865.4z M783.2,862.6l0-2.5
			c0-0.4,0-0.8,0-1.2l0,0c-0.2,0.4-0.4,0.8-0.6,1.1l-1.8,2.5l0,0L783.2,862.6z"/>
		<path class="st4" d="M785.8,863.5c0-0.9,0.5-1.6,1.5-2l0,0c-0.8-0.4-1.2-1-1.2-1.7c0-1.2,1-2,2.3-2c1.4,0,2.2,0.9,2.2,1.8
			c0,0.6-0.3,1.3-1.2,1.7l0,0c0.9,0.4,1.5,1,1.5,1.9c0,1.3-1.1,2.2-2.5,2.2C786.8,865.5,785.8,864.6,785.8,863.5z M789.8,863.4
			c0-0.9-0.6-1.3-1.6-1.6c-0.9,0.3-1.3,0.8-1.3,1.5c0,0.8,0.5,1.4,1.5,1.4C789.3,864.8,789.8,864.2,789.8,863.4z M787,859.7
			c0,0.7,0.6,1.1,1.4,1.4c0.6-0.2,1.1-0.7,1.1-1.4c0-0.6-0.4-1.2-1.3-1.2C787.5,858.6,787,859.1,787,859.7z"/>
		<path class="st4" d="M792.1,861.6c0-0.7,0-1.2-0.1-1.7l0.9,0l0,1.1l0,0c0.2-0.7,0.8-1.2,1.5-1.2c0.1,0,0.2,0,0.3,0l0,0.9
			c-0.1,0-0.2,0-0.3,0c-0.7,0-1.2,0.5-1.3,1.3c0,0.1,0,0.3,0,0.5l0,2.9l-1,0L792.1,861.6z"/>
	</g>
	<path class="st4" d="M446,419c-34.8,0-63,28.2-63,63s28.2,63,63,63s63-28.2,63-63S480.8,419,446,419z M446,535
		c-29.2,0-53-23.8-53-53c0-29.2,23.8-53,53-53s53,23.8,53,53C499,511.2,475.2,535,446,535z"/>
	<circle class="st5" cx="446" cy="482" r="38.5"/>
	<circle class="st5" cx="446" cy="482" r="29.5"/>
</g>
</svg>
