<?xml version="1.0" encoding="utf-8"?>
<!-- Generator: Adobe Illustrator 19.1.1, SVG Export Plug-In . SVG Version: 6.00 Build 0)  -->
<svg version="1.1" id="Calque_1" xmlns="http://www.w3.org/2000/svg" xmlns:xlink="http://www.w3.org/1999/xlink" x="0px" y="0px"
	 viewBox="0 0 450 450" style="enable-background:new 0 0 450 450;" xml:space="preserve">
<style type="text/css">
	.st0{opacity:0.3;fill:#FFFFFF;}
	.st1{opacity:0.69;fill:#FFFFFF;}
	.st2{fill:#FFFFFF;}
</style>
<g id="Objects">
	<g>
		<path class="st0" d="M242.2,187.3c-0.3-4.1-0.7-8.3-1.2-12.3c-0.2-1.9-0.5-3.9-0.7-5.7c-0.1-0.7-0.2-1.5-0.3-2.2
			c-1-7-2.3-13.9-3.9-20.8c-0.5-2-0.9-3.9-1.5-5.9c-0.1,0.2-0.2,0.4-0.2,0.6c-3.1,9.8-5.6,19.8-7.8,29.9c-4.9,22.9-7.8,46.1-12.4,69
			c-2.4,11.6-4.7,23.6-9.1,34.6c-3.9,10-8.9,19.7-19.9,23.3c-21,6.8-30.9-18.5-35.6-33.6c-5.6-17.7-9.4-35.9-13.8-54
			c-0.9-3.5-1.7-6.8-2.6-10.3c-5,23.8-7.5,48.3-16.7,70.9c-0.1,0.2-0.2,0.3-0.2,0.6l81,46.9c8.4,4.9,19.9,7,30.9,6.3
			c0.3-0.7,0.7-1.3,1-2c0.3-0.6,0.6-1.2,0.8-1.8c1.2-3,2.3-6,3.2-9c2.3-7.3,4.1-14.8,5.5-22.3c0.8-4.1,1.4-8.1,2-12.2c0,0,0,0,0-0.1
			c0.1-0.9,0.2-1.8,0.3-2.7c0.2-2.1,0.5-4.3,0.7-6.4c0.9-8.8,1.4-17.7,1.7-26.5C244.1,223.3,243.7,205.2,242.2,187.3z"/>
		<path class="st0" d="M278.6,242.4c-0.8,20.8-2.4,42.9-7.3,63.9l63.7-37.1c14.8-8.6,26.5-29.5,26.5-46.6v-5L257.1,104.6
			c6.8,9,10.2,21.4,12.7,32.2C277.8,171.1,280,207.3,278.6,242.4z"/>
		<path class="st1" d="M335,78.2l-84.1-48.8c-14.8-8.6-38.9-8.6-53.7,0l-83.3,48.8C99.1,86.8,88,107.7,88,124.8v97.8
			c0,5.3,0.2,11,2.3,16.6c3.5-14.5,5.5-29.4,8.5-44.1c2.3-11.2,4.4-22.6,8.8-33.1c3.8-9,9-20.1,19.7-22.2
			c11.6-2.3,20.8,3.4,26.6,13.2l33.8,35.9c3-17.6,6.3-35.2,11.4-52.3c3.7-12.4,8.3-29.4,19-37.9c13.9-11.1,28.6-7.7,39,6
			l104.4,112.8v-92.7C361.5,107.7,349.8,86.8,335,78.2z"/>
		<path class="st0" d="M169.6,200.6c3.1,12.6,5.9,25.2,9.2,37.7c2.2-9.8,3.9-19.7,5.6-29.6c1.1-6.7,2.2-13.3,3.3-20l-33.8-35.9
			C162.2,167.2,165.8,184.8,169.6,200.6z"/>
	</g>
	<g>
		<g>
			<path class="st2" d="M15.7,342.8h13.8L40,373.4h0.2l9.9-30.6h13.8v44.6h-9.2v-31.6h-0.2l-10.9,31.6H36l-10.9-31.3H25v31.3h-9.3
				V342.8z"/>
			<path class="st2" d="M72.4,342.8h9.8v44.6h-9.8V342.8z"/>
			<path class="st2" d="M120.6,357.8c-0.6-4.4-4.9-7.8-9.7-7.8c-8.8,0-12.1,7.5-12.1,15.3c0,7.5,3.3,14.9,12.1,14.9
				c6,0,9.4-4.1,10.1-10h9.5c-1,11.2-8.7,18.2-19.6,18.2c-13.8,0-21.9-10.3-21.9-23.2c0-13.3,8.1-23.6,21.9-23.6
				c9.8,0,18.1,5.7,19.3,16H120.6z"/>
			<path class="st2" d="M149.4,342.8h10.1l16.7,44.6h-10.2l-3.4-9.9h-16.7l-3.5,9.9h-9.9L149.4,342.8z M148.4,370.1H160l-5.7-16.3
				h-0.2L148.4,370.1z"/>
			<path class="st2" d="M197.3,342.8h20.1c11.2,0,15.4,7.1,15.4,14.3c0,7.2-4.3,14.3-15.4,14.3h-10.3v16h-9.8V342.8z M207.1,363.8
				h7.6c4.6,0,8.6-1,8.6-6.7c0-5.7-4.1-6.7-8.6-6.7h-7.6V363.8z"/>
			<path class="st2" d="M246.6,342.8h10.1l16.7,44.6h-10.2l-3.4-9.9H243l-3.5,9.9h-9.9L246.6,342.8z M245.6,370.1h11.6l-5.7-16.3
				h-0.2L245.6,370.1z"/>
			<path class="st2" d="M284.1,370.1l-16.4-27.3h11.1l10.5,17.6l10.4-17.6h10.9L294,370.3v17.1h-9.8V370.1z"/>
			<path class="st2" d="M321.8,342.8h10.1l16.7,44.6h-10.2l-3.4-9.9h-16.7l-3.5,9.9h-9.8L321.8,342.8z M320.8,370.1h11.6l-5.7-16.3
				h-0.2L320.8,370.1z"/>
			<path class="st2" d="M384.6,382.3c-3.5,4.4-7.9,6.1-12.3,6.1c-13.8,0-21.9-10.3-21.9-23.2c0-13.3,8.1-23.6,21.9-23.6
				c9.1,0,17.8,5.7,18.8,15.7h-9.3c-1.1-5-4.8-7.5-9.4-7.5c-8.8,0-12.1,7.5-12.1,15.3c0,7.5,3.3,14.9,12.1,14.9
				c6.4,0,10.1-3.5,10.6-9.6h-9.9v-7.3H392v24.1h-6.3L384.6,382.3z"/>
			<path class="st2" d="M399.9,342.8h33.4v8.3h-23.6v9.6h21.6v7.6h-21.6v10.9h24v8.3h-33.9V342.8z"/>
		</g>
		<g>
			<path class="st2" d="M40.1,399.2L40.1,399.2l-6.6,31.4h-2.4l-7.5-34.3h2l6.6,31.4h0.1l6.4-31.4h2.4l6.5,31.4h0.1l6.6-31.4h2
				L49,430.7h-2.5L40.1,399.2z"/>
			<path class="st2" d="M59.9,396.3h16.4v1.8H62v13.7h13.4v1.8H62v15.2h14.8v1.8H59.9V396.3z"/>
			<path class="st2" d="M80.4,396.3h9.2c6.8,0,9,3.5,9,8.6c0,4.6-2.5,7.2-6.4,7.7v0.1c5,0.3,7.5,3.9,7.5,8.6c0,5.7-3.8,9.4-9.8,9.4
				h-9.5L80.4,396.3L80.4,396.3z M89,411.9c4.4,0,7.6-2.1,7.6-7c0-4.6-2.3-6.9-6.8-6.9h-7.5v13.9L89,411.9L89,411.9z M89.2,429
				c5.6,0,8.5-2,8.5-7.8c0-6.1-3.7-7.8-8.6-7.8h-6.7V429H89.2z"/>
			<path class="st2" d="M132.7,425.9c-2.1,3.1-5,5.4-9.6,5.4c-6.5,0-9.1-4.8-9.1-8.7c0-4.6,2.5-7,6.1-9.7l2-1.6l-1.6-2.2
				c-1.7-2.4-2.7-4.2-2.7-6.6c0-3.5,2.8-6.1,6.4-6.1c4.4,0,6.4,3.1,6.4,6c0,3.5-2.3,6.1-4.9,8.2l-1.3,1.1l7.9,11.1
				c0.9-1.9,1.3-4.2,1.3-6.4h1.8c0,2.6-0.7,5.6-2,7.9l4.6,6.4h-2L132.7,425.9z M123.1,412.5l-2.1,1.7c-3,2.4-5,4.7-5,8
				c0,4.3,3.1,7.4,7.3,7.4c3.9,0,6.8-2.7,8.3-5.2L123.1,412.5z M125.2,409c2.3-2,3.7-3.7,3.7-6.6c0-2.7-1.9-4.4-4.5-4.4
				c-3.1,0-4.6,2-4.6,4.7c0,1.6,1.2,4,2.4,5.5l1.4,1.9L125.2,409z"/>
			<path class="st2" d="M176.9,398.9L176.9,398.9l-9.9,31.7h-2l-9.8-31.7h-0.1v31.7h-2v-34.3h3.3l9.7,30.9h0.1l9.5-30.9h3.3v34.3h-2
				V398.9z"/>
			<path class="st2" d="M205.5,413.5c0,15.1-6.2,17.8-11.1,17.8c-6.6,0-11.1-4.4-11.1-17.8c0-13.3,4.8-17.8,11.1-17.8
				C201.3,395.8,205.5,400.2,205.5,413.5z M185.4,413.5c0,9.4,1.9,16.1,9.1,16.1c6.3,0,9-5.2,9-16.1c0-9.3-2-16.1-9-16.1
				C187.7,397.4,185.4,404.1,185.4,413.5z"/>
			<path class="st2" d="M216.6,398.2h-9.1v-1.9h20.3v1.8h-9.1v32.5h-2L216.6,398.2L216.6,398.2z"/>
			<path class="st2" d="M230.8,396.3h2v34.3h-2V396.3z"/>
			<path class="st2" d="M259.7,413.5c0,15.1-6.2,17.8-11.1,17.8c-6.6,0-11.1-4.4-11.1-17.8c0-13.3,4.8-17.8,11.1-17.8
				C255.5,395.8,259.7,400.2,259.7,413.5z M239.6,413.5c0,9.4,1.9,16.1,9.1,16.1c6.3,0,9-5.2,9-16.1c0-9.3-2-16.1-9-16.1
				C241.9,397.4,239.6,404.1,239.6,413.5z"/>
			<path class="st2" d="M266.8,396.3l14.9,31.1h0.1v-31.1h2v34.3h-2.7l-15-31.1h-0.1v31.1h-2v-34.3H266.8z"/>
			<path class="st2" d="M301,396.3h7.9c7.2,0,12.3,3.1,12.3,17.1c0,14.1-5.9,17.1-12.3,17.1H301V396.3z M308.7,429
				c7.3,0,10.4-5,10.4-15.6s-2.4-15.6-10.4-15.6h-5.8v31L308.7,429L308.7,429z"/>
			<path class="st2" d="M325.9,396.3h16.4v1.8h-14.4v13.7h13.4v1.8h-13.4v15.2h14.8v1.8h-16.8V396.3z"/>
			<path class="st2" d="M347.2,421.8c0,4.4,2.8,7.8,7.8,7.8c4.8,0,7.9-3.4,7.9-7.8c0-4.5-2.4-6-6.3-7.4l-3.9-1.3
				c-4.6-1.6-7-3.8-7-8.4c0-5.5,3.8-9,9.2-9c6.4,0,9.2,3.6,9.2,9.4h-2c0-4.6-2.1-7.7-7-7.7c-3.9,0-7.4,1.8-7.4,7.2
				c0,3.8,2,5.7,5,6.6l5.1,1.8c4.4,1.6,7,3.7,7,8.7c0,6.1-4.6,9.6-10,9.6c-7.9,0-9.8-5.6-9.8-8.9v-2.3h2v1.7H347.2z"/>
			<path class="st2" d="M369.5,396.3h2v34.3h-2V396.3z"/>
			<path class="st2" d="M395.9,423.7L395.9,423.7c-1.2,4.6-4.2,7.5-9.1,7.5c-7.5,0-10.5-6.6-10.5-17.7c0-10.8,3.1-17.8,11-17.8
				c8,0,9.6,7.1,9.6,10.5h-2c0-4.6-2.4-8.8-7.5-8.8c-6.8,0-9.1,6.4-9.1,16c0,9.2,1.9,16.2,8.8,16.2c6.5,0,8.5-6.3,8.5-12.3v-2.1
				h-9.4v-1.7h11.5v17.1h-1.7L395.9,423.7L395.9,423.7z"/>
			<path class="st2" d="M404.7,396.3l14.9,31.1h0.1v-31.1h2v34.3h-2.7l-15-31.1H404v31.1h-2v-34.3H404.7z"/>
		</g>
	</g>
</g>
</svg>
