<?xml version="1.0" encoding="utf-8"?>
<!-- Generator: Adobe Illustrator 19.1.1, SVG Export Plug-In . SVG Version: 6.00 Build 0)  -->
<svg version="1.1" id="Calque_2" xmlns="http://www.w3.org/2000/svg" xmlns:xlink="http://www.w3.org/1999/xlink" x="0px" y="0px"
	 viewBox="0 0 250 250" style="enable-background:new 0 0 250 250;" xml:space="preserve">
<style type="text/css">
	.st0{fill:#FFFFFF;}
	.st1{fill:none;stroke:#FFFFFF;stroke-width:0.5;stroke-miterlimit:10;}
</style>
<circle class="st0" cx="288.3" cy="164.7" r="3.3"/>
<circle class="st0" cx="234.8" cy="65" r="3.3"/>
<circle class="st0" cx="242.5" cy="117.3" r="3.3"/>
<circle class="st0" cx="212.5" cy="188.3" r="3.3"/>
<circle class="st0" cx="146.3" cy="175.3" r="3.3"/>
<circle class="st0" cx="84" cy="182.3" r="3.3"/>
<circle class="st0" cx="23.3" cy="179.5" r="3.3"/>
<circle class="st0" cx="11.5" cy="78.3" r="3.3"/>
<circle class="st0" cx="42.5" cy="79.3" r="3.3"/>
<circle class="st0" cx="160.8" cy="65.8" r="3.3"/>
<circle class="st0" cx="156.5" cy="43.8" r="3.3"/>
<circle class="st0" cx="97" cy="42" r="3.3"/>
<circle class="st0" cx="99.3" cy="69.5" r="3.3"/>
<circle class="st0" cx="146.5" cy="83" r="3.3"/>
<circle class="st0" cx="109" cy="88.8" r="3.3"/>
<circle class="st0" cx="78.5" cy="109.3" r="3.3"/>
<circle class="st0" cx="81.5" cy="139.8" r="3.3"/>
<circle class="st0" cx="107" cy="157.3" r="3.3"/>
<circle class="st0" cx="156.5" cy="150.3" r="3.3"/>
<circle class="st0" cx="177" cy="115.8" r="3.3"/>
<circle class="st0" cx="369.3" cy="160.7" r="3.3"/>
<circle class="st0" cx="363.3" cy="230.7" r="3.3"/>
<circle class="st0" cx="269.3" cy="252.7" r="3.3"/>
<circle class="st0" cx="362.3" cy="288.7" r="3.3"/>
<circle class="st0" cx="457.3" cy="281.7" r="3.3"/>
<circle class="st0" cx="456.3" cy="171.7" r="3.3"/>
<polygon class="st1" points="288.3,163.9 368.8,161.1 456.6,171.2 457.3,281.7 362.2,288.3 269.8,253.1 "/>
<polyline class="st1" points="288.3,163.9 362.9,231.1 456.6,171.2 "/>
<polygon class="st1" points="100,69.7 41.6,78.5 11.3,78.5 23.6,179.6 84.1,181.7 146.1,174.5 212.4,188.2 242.7,117.5 234.7,64.9 
	160.5,66.4 156.9,43.3 97.1,41.9 "/>
<polygon class="st1" points="109.5,88.5 78.5,109 81.5,139.5 107.5,157 156.5,150 177.5,115 147,83 "/>
</svg>
