<?xml version="1.0" encoding="utf-8"?>
<!-- Generator: Adobe Illustrator 19.1.1, SVG Export Plug-In . SVG Version: 6.00 Build 0)  -->
<svg version="1.1" id="Calque_2" xmlns="http://www.w3.org/2000/svg" xmlns:xlink="http://www.w3.org/1999/xlink" x="0px" y="0px"
	 viewBox="0 0 250 250" style="enable-background:new 0 0 250 250;" xml:space="preserve">
<style type="text/css">
	.st0{fill:#FFFFFF;}
	.st1{fill:none;stroke:#FFFFFF;stroke-width:0.5;stroke-miterlimit:10;}
	.st2{fill:none;stroke:#FFFFFF;stroke-miterlimit:10;}
</style>
<circle class="st0" cx="288.3" cy="164.7" r="3.3"/>
<circle class="st0" cx="369.3" cy="160.7" r="3.3"/>
<circle class="st0" cx="208.3" cy="48.7" r="3.3"/>
<circle class="st0" cx="178.3" cy="54.7" r="3.3"/>
<circle class="st0" cx="220.3" cy="66.7" r="3.3"/>
<circle class="st0" cx="218.3" cy="107.7" r="3.3"/>
<circle class="st0" cx="179.3" cy="133.7" r="3.3"/>
<circle class="st0" cx="180.3" cy="111.7" r="3.3"/>
<circle class="st0" cx="149.3" cy="103.7" r="3.3"/>
<circle class="st0" cx="139.3" cy="92.7" r="3.3"/>
<circle class="st0" cx="148.3" cy="64.7" r="3.3"/>
<circle class="st0" cx="189.3" cy="38.7" r="3.3"/>
<circle class="st0" cx="155.3" cy="41.7" r="3.3"/>
<circle class="st0" cx="119.3" cy="65.7" r="3.3"/>
<circle class="st0" cx="119.3" cy="103.7" r="3.3"/>
<circle class="st0" cx="130.3" cy="122.7" r="3.3"/>
<circle class="st0" cx="52.3" cy="221.7" r="3.3"/>
<circle class="st0" cx="20.3" cy="216.7" r="3.3"/>
<circle class="st0" cx="21.3" cy="193.7" r="3.3"/>
<circle class="st0" cx="363.3" cy="230.7" r="3.3"/>
<circle class="st0" cx="269.3" cy="252.7" r="3.3"/>
<circle class="st0" cx="362.3" cy="288.7" r="3.3"/>
<circle class="st0" cx="457.3" cy="281.7" r="3.3"/>
<circle class="st0" cx="456.3" cy="171.7" r="3.3"/>
<polygon class="st1" points="288.3,163.9 368.8,161.1 456.6,171.2 457.3,281.7 362.2,288.3 269.8,253.1 "/>
<polyline class="st1" points="288.3,163.9 362.9,231.1 456.6,171.2 "/>
<polygon class="st2" points="188.8,38.5 155.4,41.5 119.4,65 120,104 69.5,145 20.5,194 20.5,217 52.3,221.5 91.4,170 130.9,122.5 
	179.5,133.5 219,107 221,65.5 207,96 180.5,112 149.5,103.5 140,93 148.5,64.5 178,54 209.5,48 "/>
</svg>
