<?xml version="1.0" encoding="utf-8"?>
<!-- Generator: Adobe Illustrator 19.1.1, SVG Export Plug-In . SVG Version: 6.00 Build 0)  -->
<svg version="1.1" id="Calque_2" xmlns="http://www.w3.org/2000/svg" xmlns:xlink="http://www.w3.org/1999/xlink" x="0px" y="0px"
	 viewBox="0 0 250 250" style="enable-background:new 0 0 250 250;" xml:space="preserve">
<style type="text/css">
	.st0{fill:#FFFFFF;}
	.st1{fill:none;stroke:#FFFFFF;stroke-width:0.5;stroke-miterlimit:10;}
</style>
<circle class="st0" cx="288.3" cy="164.7" r="3.3"/>
<circle class="st0" cx="217.3" cy="57.7" r="3.3"/>
<circle class="st0" cx="108.3" cy="29.7" r="3.3"/>
<circle class="st0" cx="39.3" cy="89.7" r="3.3"/>
<circle class="st0" cx="117.3" cy="70.7" r="3.3"/>
<circle class="st0" cx="63.3" cy="133.7" r="3.3"/>
<circle class="st0" cx="181.3" cy="98.7" r="3.3"/>
<circle class="st0" cx="138.3" cy="114.7" r="3.3"/>
<circle class="st0" cx="116.3" cy="125.7" r="3.3"/>
<circle class="st0" cx="124.3" cy="163.7" r="3.3"/>
<circle class="st0" cx="175.3" cy="150.7" r="3.3"/>
<circle class="st0" cx="78.3" cy="200.7" r="3.3"/>
<circle class="st0" cx="185.3" cy="196.7" r="3.3"/>
<circle class="st0" cx="225.3" cy="124.7" r="3.3"/>
<circle class="st0" cx="369.3" cy="160.7" r="3.3"/>
<circle class="st0" cx="363.3" cy="230.7" r="3.3"/>
<circle class="st0" cx="269.3" cy="252.7" r="3.3"/>
<circle class="st0" cx="362.3" cy="288.7" r="3.3"/>
<circle class="st0" cx="457.3" cy="281.7" r="3.3"/>
<circle class="st0" cx="456.3" cy="171.7" r="3.3"/>
<polygon class="st1" points="288.3,163.9 368.8,161.1 456.6,171.2 457.3,281.7 362.2,288.3 269.8,253.1 "/>
<polyline class="st1" points="288.3,163.9 362.9,231.1 456.6,171.2 "/>
<path class="st1" d="M39.5,90L108,29.5l109.5,27l8,69l-41,71.5L78,200.5c0,0-16.5-67.5-15-68s53.5-62,53.5-62L181,99l-5.5,52.5
	l-51.5,12l-7.5-37.5l22.5-11"/>
</svg>
