<?xml version="1.0" encoding="utf-8"?>
<!-- Generator: Adobe Illustrator 19.1.1, SVG Export Plug-In . SVG Version: 6.00 Build 0)  -->
<svg version="1.1" id="Calque_2" xmlns="http://www.w3.org/2000/svg" xmlns:xlink="http://www.w3.org/1999/xlink" x="0px" y="0px"
	 viewBox="0 0 250 250" style="enable-background:new 0 0 250 250;" xml:space="preserve">
<style type="text/css">
	.st0{fill:#FFFFFF;}
	.st1{fill:none;stroke:#FFFFFF;stroke-width:0.5;stroke-miterlimit:10;}
</style>
<circle class="st0" cx="288.3" cy="164.7" r="3.3"/>
<circle class="st0" cx="369.3" cy="160.7" r="3.3"/>
<circle class="st0" cx="363.3" cy="230.7" r="3.3"/>
<circle class="st0" cx="269.3" cy="252.7" r="3.3"/>
<circle class="st0" cx="362.3" cy="288.7" r="3.3"/>
<circle class="st0" cx="457.3" cy="281.7" r="3.3"/>
<circle class="st0" cx="456.3" cy="171.7" r="3.3"/>
<polygon class="st1" points="288.3,163.9 368.8,161.1 456.6,171.2 457.3,281.7 362.2,288.3 269.8,253.1 "/>
<polyline class="st1" points="288.3,163.9 362.9,231.1 456.6,171.2 "/>
<polyline class="st1" points="20,42 40,144 76,207 120,98 169,156 199,202 236,107 219,24 "/>
<circle class="st0" cx="219.3" cy="23.7" r="3.3"/>
<circle class="st0" cx="236.3" cy="106.7" r="3.3"/>
<circle class="st0" cx="200.3" cy="201.7" r="3.3"/>
<circle class="st0" cx="168.3" cy="155.7" r="3.3"/>
<circle class="st0" cx="120.3" cy="98.7" r="3.3"/>
<circle class="st0" cx="76.3" cy="206.7" r="3.3"/>
<circle class="st0" cx="40.3" cy="142.7" r="3.3"/>
<circle class="st0" cx="20.3" cy="41.7" r="3.3"/>
</svg>
